<mxfile host="app.diagrams.net" modified="2024-03-11T15:42:29.705Z" agent="Mozilla/5.0 (Windows NT 10.0; Win64; x64) AppleWebKit/537.36 (KHTML, like Gecko) Chrome/122.0.0.0 Safari/537.36" etag="IuKLQ4sJ5n6iHNuiNhzK" version="24.0.2" type="device">
  <diagram name="Sida-1" id="kQM-QbVjYhrihprbOGzf">
    <mxGraphModel dx="2345" dy="614" grid="1" gridSize="10" guides="1" tooltips="1" connect="1" arrows="1" fold="1" page="1" pageScale="1" pageWidth="827" pageHeight="1169" math="0" shadow="0">
      <root>
        <mxCell id="0" />
        <mxCell id="1" parent="0" />
        <mxCell id="M1ax0roDfTo3QCZ41I7S-5" value="" style="edgeStyle=none;rounded=0;orthogonalLoop=1;jettySize=auto;html=1;" edge="1" parent="1" source="zjE7xfYpcecLvfcCObyw-1">
          <mxGeometry relative="1" as="geometry">
            <mxPoint x="420" y="100" as="targetPoint" />
          </mxGeometry>
        </mxCell>
        <mxCell id="M1ax0roDfTo3QCZ41I7S-9" style="edgeStyle=orthogonalEdgeStyle;rounded=0;orthogonalLoop=1;jettySize=auto;html=1;exitX=0;exitY=0.5;exitDx=0;exitDy=0;entryX=0.5;entryY=0;entryDx=0;entryDy=0;" edge="1" parent="1" source="zjE7xfYpcecLvfcCObyw-1">
          <mxGeometry relative="1" as="geometry">
            <mxPoint x="100" y="100" as="targetPoint" />
          </mxGeometry>
        </mxCell>
        <mxCell id="M1ax0roDfTo3QCZ41I7S-10" style="edgeStyle=orthogonalEdgeStyle;rounded=0;orthogonalLoop=1;jettySize=auto;html=1;exitX=1;exitY=0.5;exitDx=0;exitDy=0;entryX=0.5;entryY=0;entryDx=0;entryDy=0;" edge="1" parent="1" source="zjE7xfYpcecLvfcCObyw-1">
          <mxGeometry relative="1" as="geometry">
            <mxPoint x="740" y="100" as="targetPoint" />
          </mxGeometry>
        </mxCell>
        <mxCell id="zjE7xfYpcecLvfcCObyw-1" value="&lt;b&gt;Namespace&lt;/b&gt;: Labb_4" style="rounded=0;whiteSpace=wrap;html=1;" parent="1" vertex="1">
          <mxGeometry x="360" width="120" height="60" as="geometry" />
        </mxCell>
        <mxCell id="M1ax0roDfTo3QCZ41I7S-11" value="&lt;b&gt;Class&lt;/b&gt;: Product" style="rounded=0;whiteSpace=wrap;html=1;" vertex="1" parent="1">
          <mxGeometry x="-40" y="200" width="120" height="60" as="geometry" />
        </mxCell>
        <mxCell id="M1ax0roDfTo3QCZ41I7S-12" value="&lt;b&gt;Class&lt;/b&gt;: Inventory" style="rounded=0;whiteSpace=wrap;html=1;" vertex="1" parent="1">
          <mxGeometry x="120" y="200" width="120" height="60" as="geometry" />
        </mxCell>
        <mxCell id="M1ax0roDfTo3QCZ41I7S-13" value="&lt;b&gt;Class&lt;/b&gt;: StorageView" style="rounded=0;whiteSpace=wrap;html=1;" vertex="1" parent="1">
          <mxGeometry x="600" y="200" width="120" height="60" as="geometry" />
        </mxCell>
        <mxCell id="M1ax0roDfTo3QCZ41I7S-14" value="&lt;b&gt;Class&lt;/b&gt;: CashRegisterView" style="rounded=0;whiteSpace=wrap;html=1;" vertex="1" parent="1">
          <mxGeometry x="760" y="200" width="120" height="60" as="geometry" />
        </mxCell>
        <mxCell id="M1ax0roDfTo3QCZ41I7S-15" value="&lt;b&gt;Class&lt;/b&gt;: ProductController" style="rounded=0;whiteSpace=wrap;html=1;" vertex="1" parent="1">
          <mxGeometry x="280" y="200" width="120" height="60" as="geometry" />
        </mxCell>
        <mxCell id="M1ax0roDfTo3QCZ41I7S-16" value="&lt;b&gt;Class&lt;/b&gt;: InventoryController" style="rounded=0;whiteSpace=wrap;html=1;" vertex="1" parent="1">
          <mxGeometry x="440" y="200" width="120" height="60" as="geometry" />
        </mxCell>
      </root>
    </mxGraphModel>
  </diagram>
</mxfile>
